<svg width="47" height="47" viewBox="0 0 47 47" fill="none" xmlns="http://www.w3.org/2000/svg">
<g id="Facebook logo" clip-path="url(#clip0_13_739)">
<path id="Vector" d="M43.7284 0H2.5546C1.87708 0 1.22731 0.269145 0.748226 0.748226C0.269145 1.22731 0 1.87708 0 2.5546L0 43.7284C0 44.4059 0.269145 45.0557 0.748226 45.5347C1.22731 46.0138 1.87708 46.283 2.5546 46.283H24.7234V28.3845H18.7121V21.3787H24.7234V16.2262C24.7234 10.2482 28.3745 6.99307 33.7088 6.99307C36.2625 6.99307 38.4582 7.1829 39.0964 7.26426V13.5116H35.4173C32.5156 13.5116 31.9533 14.8901 31.9533 16.9141V21.3787H38.8903L37.9864 28.3845H31.9533V46.283H43.7265C44.0622 46.2832 44.3946 46.2173 44.7047 46.089C45.0149 45.9607 45.2967 45.7726 45.5341 45.5354C45.7715 45.2981 45.9598 45.0164 46.0883 44.7064C46.2168 44.3963 46.283 44.064 46.283 43.7284V2.5546C46.283 1.87708 46.0138 1.22731 45.5347 0.748226C45.0557 0.269145 44.4059 0 43.7284 0V0Z" fill="#4267B2"/>
<path id="Vector_2" d="M31.955 46.2829V28.3844H37.9889L38.8929 21.3787H31.955V16.9167C31.955 14.8927 32.5154 13.5142 35.419 13.5142H39.0963V7.26509C38.4563 7.18011 36.2606 6.9939 33.7087 6.9939C28.3753 6.9939 24.7233 10.2482 24.7233 16.227V21.3796H18.7119V28.3844H24.7233V46.2829H31.955Z" fill="white"/>
</g>
<defs>
<clipPath id="clip0_13_739">
<rect width="46.283" height="46.283" fill="white"/>
</clipPath>
</defs>
</svg>
