<svg width="46" height="46" viewBox="0 0 46 46" fill="none" xmlns="http://www.w3.org/2000/svg">
<g id="Instagram logo" clip-path="url(#clip0_13_721)">
<path id="Vector" d="M11.5773 45.8373C8.86213 45.7129 7.38714 45.2576 6.40608 44.8721C5.10614 44.3622 4.17935 43.7552 3.20372 42.7736C2.22808 41.792 1.62425 40.8582 1.12083 39.5485C0.738171 38.5601 0.286313 37.074 0.162832 34.3383C0.0271387 31.3812 0 30.494 0 23.0021C0 15.5101 0.0298525 14.6242 0.161475 11.6644C0.284956 8.92876 0.739528 7.44542 1.11947 6.45425C1.62561 5.14453 2.22944 4.21078 3.20236 3.22644C4.17664 2.24484 5.10342 1.63509 6.40472 1.12789C7.38578 0.742354 8.86077 0.287098 11.576 0.162689C14.5124 0.0273427 15.3944 0 22.8277 0C30.2637 0 31.143 0.030077 34.0807 0.162689C36.7959 0.287098 38.2682 0.745089 39.252 1.12789C40.5519 1.63509 41.4787 2.24484 42.4544 3.22644C43.43 4.20804 44.0311 5.14316 44.5372 6.45288C44.9199 7.44132 45.3718 8.92739 45.4952 11.663C45.6296 14.6229 45.6567 15.5088 45.6567 23.0007C45.6567 30.4899 45.6296 31.3785 45.4952 34.3383C45.3718 37.074 44.9172 38.5601 44.5372 39.5485C44.0311 40.8582 43.4286 41.792 42.4544 42.7736C41.4801 43.7552 40.5519 44.3622 39.252 44.8721C38.2709 45.2576 36.7959 45.7129 34.0807 45.8373C31.1457 45.9727 30.2637 46 22.8277 46C15.3944 46 14.5124 45.974 11.5773 45.8373Z" fill="url(#paint0_radial_13_721)"/>
<path id="Vector_2" d="M11.5773 45.8373C8.86213 45.7129 7.38714 45.2576 6.40608 44.8721C5.10614 44.3622 4.17935 43.7552 3.20372 42.7736C2.22808 41.792 1.62425 40.8582 1.12083 39.5485C0.738171 38.5601 0.286313 37.074 0.162832 34.3383C0.0271387 31.3812 0 30.494 0 23.0021C0 15.5101 0.0298525 14.6242 0.161475 11.6644C0.284956 8.92876 0.739528 7.44542 1.11947 6.45425C1.62561 5.14453 2.22944 4.21078 3.20236 3.22644C4.17664 2.24484 5.10342 1.63509 6.40472 1.12789C7.38578 0.742354 8.86077 0.287098 11.576 0.162689C14.5124 0.0273427 15.3944 0 22.8277 0C30.2637 0 31.143 0.030077 34.0807 0.162689C36.7959 0.287098 38.2682 0.745089 39.252 1.12789C40.5519 1.63509 41.4787 2.24484 42.4544 3.22644C43.43 4.20804 44.0311 5.14316 44.5372 6.45288C44.9199 7.44132 45.3718 8.92739 45.4952 11.663C45.6296 14.6229 45.6567 15.5088 45.6567 23.0007C45.6567 30.4899 45.6296 31.3785 45.4952 34.3383C45.3718 37.074 44.9172 38.5601 44.5372 39.5485C44.0311 40.8582 43.4286 41.792 42.4544 42.7736C41.4801 43.7552 40.5519 44.3622 39.252 44.8721C38.2709 45.2576 36.7959 45.7129 34.0807 45.8373C31.1457 45.9727 30.2637 46 22.8277 46C15.3944 46 14.5124 45.974 11.5773 45.8373Z" fill="url(#paint1_radial_13_721)"/>
<path id="Vector_3" d="M17.2227 23.098C17.2227 19.9521 19.7533 17.4011 22.8757 17.4011C25.9982 17.4011 28.5301 19.9521 28.5301 23.098C28.5301 26.2439 25.9982 28.7948 22.8757 28.7948C19.7533 28.7948 17.2227 26.2439 17.2227 23.098ZM14.1661 23.098C14.1661 27.9445 18.0654 31.8731 22.8757 31.8731C27.686 31.8731 31.5853 27.9445 31.5853 23.098C31.5853 18.2515 27.686 14.3229 22.8757 14.3229C18.0654 14.3229 14.1662 18.2512 14.1662 23.098M29.8949 13.975C29.8947 14.3805 30.0139 14.7771 30.2374 15.1144C30.461 15.4517 30.7787 15.7147 31.1506 15.8701C31.5225 16.0254 31.9317 16.0662 32.3266 15.9872C32.7214 15.9083 33.0842 15.7131 33.3689 15.4264C33.6537 15.1397 33.8477 14.7744 33.9264 14.3766C34.0051 13.9789 33.9649 13.5665 33.811 13.1918C33.6571 12.817 33.3964 12.4966 33.0617 12.2711C32.7271 12.0457 32.3336 11.9252 31.9311 11.9251H31.9303C31.3907 11.9253 30.8732 12.1413 30.4916 12.5257C30.11 12.91 29.8953 13.4313 29.8949 13.975ZM16.0232 37.0083C14.3695 36.9324 13.4707 36.6549 12.8734 36.4204C12.0815 36.1098 11.5164 35.7399 10.9224 35.1422C10.3283 34.5445 9.96057 33.9757 9.65363 33.1779C9.42078 32.5763 9.14533 31.6705 9.07015 30.0043C8.98792 28.203 8.9715 27.6619 8.9715 23.0983C8.9715 18.5346 8.98928 17.995 9.07015 16.1922C9.14546 14.526 9.42296 13.622 9.65363 13.0186C9.96193 12.2208 10.3291 11.6515 10.9224 11.053C11.5156 10.4544 12.0801 10.0839 12.8734 9.7747C13.4704 9.5401 14.3695 9.26257 16.0232 9.18683C17.8111 9.10398 18.3482 9.08744 22.8757 9.08744C27.4033 9.08744 27.9409 9.10508 29.7303 9.18711C31.384 9.26298 32.2813 9.54256 32.8801 9.77497C33.672 10.0842 34.237 10.4555 34.8311 11.0532C35.4252 11.651 35.7915 12.2211 36.0998 13.0189C36.3327 13.6205 36.6082 14.5263 36.6833 16.1924C36.7656 17.9953 36.782 18.5349 36.782 23.0985C36.782 27.6622 36.7656 28.2018 36.6833 30.0046C36.608 31.6707 36.3312 32.5763 36.0998 33.1781C35.7915 33.976 35.4244 34.5453 34.8311 35.1424C34.2379 35.7396 33.672 36.1101 32.8801 36.4207C32.2831 36.6553 31.384 36.9328 29.7303 37.0086C27.9424 37.0914 27.4053 37.108 22.8757 37.108C18.3461 37.108 17.8106 37.0914 16.0232 37.0086M15.8828 6.11228C14.0771 6.19513 12.8432 6.4836 11.7657 6.90604C10.6504 7.34229 9.70506 7.92756 8.76104 8.87718C7.81702 9.82679 7.23761 10.7794 6.80462 11.9044C6.38533 12.9907 6.09901 14.2332 6.01678 16.0524C5.9332 17.8746 5.91406 18.4571 5.91406 23.098C5.91406 27.7389 5.9332 28.3214 6.01678 30.1435C6.09901 31.9629 6.38533 33.2052 6.80462 34.2915C7.23761 35.4152 7.81716 36.3696 8.76104 37.3188C9.70493 38.268 10.6491 38.8524 11.7657 39.2899C12.8453 39.7124 14.0771 40.0008 15.8828 40.0837C17.6922 40.1665 18.2695 40.1872 22.8757 40.1872C27.482 40.1872 28.0602 40.1679 29.8687 40.0837C31.6745 40.0008 32.9075 39.7124 33.9857 39.2899C35.101 38.8524 36.0464 38.2684 36.9904 37.3188C37.9344 36.3692 38.5126 35.4152 38.9468 34.2915C39.3661 33.2052 39.6538 31.9628 39.7347 30.1435C39.8169 28.32 39.836 27.7389 39.836 23.098C39.836 18.4571 39.8169 17.8746 39.7347 16.0524C39.6524 14.2331 39.3661 12.9901 38.9468 11.9044C38.5126 10.7808 37.9329 9.82829 36.9904 8.87718C36.0479 7.92606 35.101 7.34229 33.9871 6.90604C32.9075 6.4836 31.6743 6.19376 29.87 6.11228C28.0612 6.02902 27.4833 6.00879 22.8778 6.00879C18.2722 6.00879 17.6929 6.02807 15.8834 6.11228" fill="white"/>
</g>
<defs>
<radialGradient id="paint0_radial_13_721" cx="0" cy="0" r="1" gradientUnits="userSpaceOnUse" gradientTransform="translate(2.95486 44.9923) scale(57.9671 58.4029)">
<stop offset="0.09" stop-color="#FA8F21"/>
<stop offset="0.78" stop-color="#D82D7E"/>
</radialGradient>
<radialGradient id="paint1_radial_13_721" cx="0" cy="0" r="1" gradientUnits="userSpaceOnUse" gradientTransform="translate(31.6248 43.5152) scale(51.0116 51.3951)">
<stop offset="0.64" stop-color="#8C3AAA" stop-opacity="0"/>
<stop offset="1" stop-color="#8C3AAA"/>
</radialGradient>
<clipPath id="clip0_13_721">
<rect width="45.6567" height="46" fill="white"/>
</clipPath>
</defs>
</svg>
