<svg width="46" height="46" viewBox="0 0 46 46" fill="none" xmlns="http://www.w3.org/2000/svg">
<g id="LinkedIn logo" clip-path="url(#clip0_13_725)">
<path id="Vector" d="M42.5931 0.0012207H3.39538C1.52375 0.0012207 0 1.48616 0 3.31466V42.6792C0 44.512 1.52375 45.9998 3.39538 45.9998H42.596C44.4719 45.9998 46 44.512 46 42.6792V3.31466C46 1.48616 44.4719 0.0012207 42.5931 0.0012207Z" fill="#0177B5"/>
<path id="Vector_2" d="M6.82069 17.2458H13.656V39.1964H6.82069V17.2458ZM10.2333 6.3208C12.414 6.3208 14.1864 8.09324 14.1864 10.2739C14.1864 12.4546 12.414 14.2314 10.2348 14.2314C9.18574 14.2291 8.18033 13.8115 7.43843 13.0698C6.69653 12.3282 6.27854 11.3229 6.27588 10.2739C6.27588 9.75443 6.37827 9.24003 6.5772 8.76014C6.77614 8.28024 7.06771 7.84426 7.43525 7.47712C7.80279 7.10998 8.23908 6.81889 8.7192 6.62048C9.19931 6.42207 9.71382 6.32024 10.2333 6.3208ZM17.9239 17.2458H24.4674V20.2459H24.558C25.4694 18.5209 27.6946 16.701 31.0268 16.701C37.9354 16.701 39.2104 21.2478 39.2104 27.1574V39.1979H32.3924V28.5201C32.3924 25.9757 32.3464 22.6982 28.8475 22.6982C25.2969 22.6982 24.7506 25.4726 24.7506 28.3332V39.1921H17.934V17.2415L17.9239 17.2458Z" fill="white"/>
</g>
<defs>
<clipPath id="clip0_13_725">
<rect width="46" height="46" fill="white"/>
</clipPath>
</defs>
</svg>
