<svg width="37" height="22" viewBox="0 0 37 22" fill="none" xmlns="http://www.w3.org/2000/svg">
<g id="Medium logo" clip-path="url(#clip0_13_730)">
<path id="Vector" d="M10.4352 0.0456543C16.1986 0.0456543 20.8703 4.75 20.8703 10.5525C20.8703 16.3551 16.1982 21.0591 10.4352 21.0591C4.67241 21.0591 0 16.3551 0 10.5525C0 4.75015 4.67197 0.0456543 10.4352 0.0456543ZM27.0996 0.661068C29.9813 0.661068 32.3173 5.08922 32.3173 10.5525H32.3178C32.3178 16.0145 29.9817 20.4439 27.1002 20.4439C24.2187 20.4439 21.8825 16.0145 21.8825 10.5525C21.8825 5.09066 24.2181 0.661068 27.0998 0.661068H27.0996ZM35.1649 1.69143C36.1782 1.69143 37 5.65867 37 10.5526C37 15.445 36.1785 19.4139 35.1649 19.4139C34.1513 19.4139 33.3302 15.4462 33.3302 10.5526C33.3302 5.65896 34.1517 1.69143 35.1649 1.69143Z" fill="black"/>
</g>
<defs>
<clipPath id="clip0_13_730">
<rect width="37" height="21.1048" fill="white"/>
</clipPath>
</defs>
</svg>
