<svg width="134" height="72" viewBox="0 0 134 72" fill="none" xmlns="http://www.w3.org/2000/svg">
<path d="M70.8794 39.851L70.8792 39.8512L40.5663 70.3743C40.01 70.9345 39.5458 71.1421 39.1467 71.164C38.7451 71.1861 38.3358 71.0245 37.8801 70.689C37.4226 70.3521 36.9546 69.8672 36.44 69.2991C36.3126 69.1585 36.1824 69.0129 36.0493 68.864C35.6529 68.4205 35.2311 67.9485 34.7822 67.4966C34.318 67.0292 33.8543 66.6126 33.435 66.2359C33.312 66.1255 33.1928 66.0184 33.0786 65.9146C32.5654 65.4479 32.1596 65.0516 31.8985 64.6684C31.6442 64.2952 31.5478 63.9646 31.6084 63.6159C31.6716 63.2518 31.9163 62.8049 32.486 62.2313L58.522 36.0253L58.765 35.7807L58.522 35.536L32.4908 9.32433C31.9246 8.75419 31.6774 8.29319 31.6128 7.90556C31.5499 7.5285 31.6505 7.16453 31.907 6.76129C32.1686 6.34991 32.5752 5.92473 33.0852 5.43864C33.2511 5.28062 33.4284 5.11566 33.6131 4.94382C33.984 4.59877 34.3847 4.22594 34.7822 3.82568C35.1725 3.43272 35.5457 3.02728 35.8984 2.6442C36.0834 2.44319 36.2628 2.24834 36.436 2.06468C36.9495 1.5201 37.4162 1.06532 37.871 0.758011C38.3222 0.45311 38.7307 0.314491 39.1361 0.353989C39.5428 0.393608 40.0125 0.618919 40.571 1.18125L70.884 31.7043C72.0001 32.8282 72.5545 34.303 72.5545 35.7806C72.5545 37.2552 71.9959 38.7286 70.8794 39.851Z" stroke="white" stroke-width="0.694301"/>
<path d="M41.658 35.7806C41.658 37.3427 41.066 38.9054 39.8819 40.0958L9.56893 70.619C7.20074 73.0036 5.66044 70.1258 3.29224 67.7412C0.924046 65.3566 -1.37214 64.3713 0.996055 61.9866L27.032 35.7806L1.00079 9.56895C-1.36741 7.18433 0.924052 5.96567 3.29225 3.58105C5.66045 1.19643 7.20547 -1.44798 9.57367 0.93663L39.8866 31.4597C41.0707 32.652 41.658 34.2163 41.658 35.7806Z" fill="white"/>
<path d="M102.757 35.7806C102.757 37.3427 102.165 38.9054 100.981 40.0958L70.6676 70.619C68.2994 73.0036 66.7591 70.1258 64.3909 67.7412C62.0227 65.3566 59.7265 64.3713 62.0947 61.9866L88.1307 35.7806L62.0994 9.56895C59.7312 7.18433 62.0227 5.96567 64.3909 3.58105C66.7591 1.19643 68.3041 -1.44798 70.6723 0.93663L100.985 31.4597C102.169 32.652 102.757 34.2163 102.757 35.7806Z" fill="white"/>
<path d="M131.978 39.851L131.977 39.8512L101.664 70.3743C101.108 70.9345 100.644 71.1421 100.245 71.164C99.8433 71.1861 99.4339 71.0245 98.9782 70.689C98.5207 70.3521 98.0527 69.8672 97.5381 69.2991C97.4107 69.1585 97.2805 69.0129 97.1475 68.864C96.7511 68.4205 96.3292 67.9485 95.8804 67.4966C95.4162 67.0292 94.9524 66.6126 94.5331 66.2359C94.4101 66.1255 94.2909 66.0184 94.1767 65.9146C93.6636 65.4479 93.2577 65.0516 92.9967 64.6684C92.7423 64.2952 92.646 63.9646 92.7065 63.6159C92.7698 63.2518 93.0145 62.8049 93.5842 62.2313L119.62 36.0253L119.863 35.7807L119.62 35.536L93.5889 9.32433C93.0227 8.75419 92.7756 8.29319 92.7109 7.90556C92.648 7.5285 92.7487 7.16453 93.0051 6.76129C93.2667 6.34991 93.6733 5.92473 94.1834 5.43864C94.3492 5.28062 94.5265 5.11566 94.7112 4.94382C95.0821 4.59877 95.4829 4.22594 95.8804 3.82568C96.2706 3.43272 96.6439 3.02728 96.9965 2.6442C97.1816 2.44319 97.3609 2.24834 97.5341 2.06468C98.0477 1.5201 98.5144 1.06532 98.9691 0.758011C99.4203 0.45311 99.8289 0.314491 100.234 0.353989C100.641 0.393608 101.111 0.618919 101.669 1.18125L131.982 31.7043C133.098 32.8282 133.653 34.303 133.653 35.7806C133.653 37.2552 133.094 38.7286 131.978 39.851Z" stroke="white" stroke-width="0.694301"/>
</svg> 