<svg width="115" height="61" viewBox="0 0 115 61" fill="none" xmlns="http://www.w3.org/2000/svg">
<path d="M53.9801 27.1636L53.9804 27.1633L79.8196 1.14501C80.2683 0.693169 80.6097 0.558712 80.8677 0.544525C81.1297 0.530119 81.4222 0.632916 81.7872 0.901672C82.1551 1.17253 82.5393 1.56889 82.9782 2.0533C83.0845 2.17071 83.1941 2.29327 83.3066 2.41919C83.6455 2.79829 84.0114 3.20773 84.3991 3.59804C84.8002 4.002 85.2027 4.36351 85.5608 4.68517C85.6648 4.77855 85.765 4.86856 85.8604 4.95528C86.2991 5.35427 86.6242 5.67434 86.8282 5.97377C87.0218 6.25782 87.0735 6.47501 87.0363 6.68946C86.9949 6.92797 86.8261 7.26479 86.3564 7.73771C86.3564 7.73773 86.3564 7.73776 86.3564 7.73779L64.163 30.076L63.7828 30.4588L64.163 30.8416L86.3523 53.1848C86.8166 53.6523 86.9889 54.0009 87.0323 54.2606C87.0728 54.5038 87.014 54.7525 86.8168 55.0626C86.6114 55.3855 86.2846 55.73 85.8504 56.1438C85.7132 56.2745 85.5643 56.4131 85.408 56.5585C85.0898 56.8546 84.7411 57.179 84.399 57.5234C84.0635 57.8613 83.7389 58.2139 83.4361 58.5428C83.2793 58.713 83.1284 58.8769 82.9849 59.0291C82.5481 59.4923 82.1663 59.8623 81.8031 60.1077C81.4456 60.3494 81.1547 60.437 80.8871 60.4109C80.6177 60.3846 80.2676 60.2328 79.8155 59.7776L53.9764 33.7593C53.0734 32.8501 52.6242 31.6567 52.6242 30.4589C52.6242 29.2643 53.0766 28.0719 53.9801 27.1636Z" stroke="white" stroke-width="1.08637"/>
<path d="M78.7133 30.4589C78.7133 29.1274 79.218 27.7952 80.2273 26.7805L106.066 0.762253C108.085 -1.27043 109.398 1.1826 111.417 3.21528C113.435 5.24796 115.393 6.08787 113.374 8.12055L91.1807 30.4589L113.37 52.802C115.389 54.8347 113.435 55.8735 111.417 57.9062C109.398 59.9389 108.081 62.193 106.062 60.1603L80.2233 34.1421C79.2139 33.1257 78.7133 31.7923 78.7133 30.4589Z" fill="white"/>
<path d="M26.6323 30.4589C26.6323 29.1274 27.1369 27.7952 28.1463 26.7805L53.9854 0.762253C56.0041 -1.27043 57.3171 1.1826 59.3357 3.21528C61.3544 5.24796 63.3117 6.08787 61.293 8.12055L39.0996 30.4589L61.289 52.802C63.3077 54.8347 61.3544 55.8735 59.3357 57.9062C57.3171 59.9389 56.0001 62.193 53.9814 60.1603L28.1422 34.1421C27.1329 33.1257 26.6323 31.7923 26.6323 30.4589Z" fill="white"/>
<path d="M1.89905 27.1636L1.89936 27.1633L27.7385 1.14501C28.1872 0.693169 28.5287 0.558712 28.7867 0.544525C29.0486 0.530119 29.3412 0.632916 29.7062 0.901672C30.0741 1.17253 30.4583 1.56889 30.8971 2.0533C31.0035 2.17071 31.113 2.29327 31.2256 2.41919C31.5644 2.79829 31.9304 3.20773 32.318 3.59804C32.7192 4.002 33.1217 4.36351 33.4798 4.68517C33.5837 4.77855 33.6839 4.86856 33.7793 4.95528C34.218 5.35427 34.5432 5.67434 34.7472 5.97377C34.9407 6.25782 34.9925 6.47501 34.9552 6.68946C34.9138 6.92797 34.745 7.26479 34.2754 7.73771C34.2754 7.73773 34.2753 7.73776 34.2753 7.73779L12.082 30.076L11.7017 30.4588L12.0819 30.8416L34.2713 53.1848C34.7355 53.6523 34.9079 54.0009 34.9512 54.2606C34.9918 54.5038 34.9329 54.7525 34.7357 55.0626C34.5304 55.3855 34.2036 55.73 33.7694 56.1438C33.6322 56.2745 33.4833 56.4131 33.327 56.5585C33.0087 56.8546 32.6601 57.179 32.318 57.5234C31.9824 57.8613 31.6578 58.2139 31.3551 58.5428C31.1983 58.713 31.0474 58.8769 30.9038 59.0291C30.467 59.4923 30.0852 59.8623 29.7221 60.1077C29.3645 60.3494 29.0737 60.437 28.8061 60.4109C28.5366 60.3846 28.1866 60.2328 27.7345 59.7776L1.89532 33.7593C0.992374 32.8501 0.543121 31.6567 0.543121 30.4589C0.543121 29.2643 0.995537 28.0719 1.89905 27.1636Z" stroke="white" stroke-width="1.08637"/>
</svg> 