<svg width="46" height="46" viewBox="0 0 46 46" fill="none" xmlns="http://www.w3.org/2000/svg">
<g id="Twitter logo">
<g clip-path="url(#clip0_13_732)">
<path id="Vector" d="M45.9308 0H0.0134602C0.00602635 0 0 0.00602635 0 0.0134602V45.9308C0 45.9382 0.00602635 45.9442 0.0134602 45.9442H45.9308C45.9382 45.9442 45.9442 45.9382 45.9442 45.9308V0.0134602C45.9442 0.00602635 45.9382 0 45.9308 0Z" fill="#1DA1F2"/>
<path id="Vector_2" d="M39.214 13.6397C38.1372 14.1781 36.8809 14.5371 35.6246 14.7165C36.9706 13.9089 37.9577 12.6526 38.4961 11.1271C37.2398 11.845 35.8938 12.3834 34.458 12.6526C33.4815 11.6525 32.207 10.996 30.8257 10.7817C29.4444 10.5674 28.0308 10.8069 26.7972 11.4641C25.5635 12.1214 24.5763 13.161 23.9837 14.427C23.3911 15.693 23.225 17.117 23.5104 18.4854C18.4852 18.2162 13.6396 15.8831 10.4988 11.845C10.0715 12.5276 9.78348 13.288 9.65141 14.0824C9.51934 14.8768 9.54583 15.6895 9.72935 16.4737C9.91287 17.2578 10.2498 17.9978 10.7207 18.6511C11.1916 19.3044 11.7871 19.8581 12.473 20.2801C11.4859 20.2801 10.4988 20.1006 9.6015 19.6519C9.69124 22.6132 11.7551 25.2155 14.6267 25.8436C13.7293 26.1129 12.7422 26.1129 11.7551 25.9334C12.6525 28.5357 15.0753 30.3304 17.7674 30.4201C15.1651 32.5738 11.6654 33.5608 8.34521 33.0224C11.1197 34.8738 14.3573 35.9111 17.6912 36.0168C21.025 36.1225 24.3218 35.2924 27.2081 33.6204C30.0943 31.9484 32.4545 29.5016 34.0214 26.557C35.5882 23.6124 36.299 20.2878 36.0733 16.9599C37.3296 16.0626 38.4064 14.9857 39.214 13.6397Z" fill="white"/>
</g>
</g>
<defs>
<clipPath id="clip0_13_732">
<rect width="45.9442" height="45.9442" rx="4" fill="white"/>
</clipPath>
</defs>
</svg>
