<svg width="46" height="46" viewBox="0 0 46 46" fill="none" xmlns="http://www.w3.org/2000/svg">
<g id="Youtube logo" clip-path="url(#clip0_13_735)">
<path id="Vector" d="M0.00439453 11.7348V11.7328C0.0319673 10.7126 0.0411582 9.6865 0.212477 8.67274C0.394825 7.60016 0.655479 6.55423 1.15271 5.58073C1.82499 4.26312 2.74537 3.15004 3.91384 2.24148C4.75059 1.58893 5.66471 1.07074 6.67663 0.743916C8.15196 0.268009 9.67416 0.0856628 11.2186 0.0766525C12.1822 0.0705872 13.1452 0.0465088 14.1091 0.0505524C21.1093 0.0799637 28.1097 3.8147e-06 35.1102 0.0937538C36.0391 0.106251 36.9528 0.219666 37.8645 0.386391C39.6119 0.706234 41.1562 1.45254 42.4775 2.63063C44.0173 4.00394 45.0563 5.68495 45.5254 7.71357C45.8322 9.03964 45.909 10.3848 45.922 11.735V12.0043C45.922 12.1087 45.8823 34.9431 45.8787 35.245C45.8686 36.074 45.8073 36.8969 45.652 37.7127C45.4629 38.7068 45.1958 39.6755 44.7199 40.5748C44.2171 41.5251 43.5876 42.3793 42.8082 43.126C41.6154 44.2699 40.2388 45.0787 38.6355 45.5066C37.1881 45.8927 35.7115 45.9787 34.2238 45.9772C34.2191 45.9839 34.2162 45.9918 34.2156 46H11.7026C11.7026 45.9923 11.7026 45.9847 11.7013 45.9772C10.857 45.9618 10.0117 45.9682 9.17179 45.864C8.25177 45.7496 7.3404 45.5774 6.46966 45.2557C5.098 44.7484 3.90612 43.9581 2.88814 42.9028C1.73468 41.708 0.921281 40.3253 0.49041 38.7156C0.105311 37.2795 0.0214896 35.8148 0.0194676 34.3397" fill="white"/>
<path id="Vector_2" d="M23.7764 10.3646L16.2483 10.5023C13.8109 10.5503 11.3674 10.4545 8.97774 10.9515C5.34255 11.6942 5.08502 15.3354 4.81554 18.3897C4.44423 22.6837 4.58798 27.0557 5.28869 31.3138C5.68427 33.7031 7.24102 35.1288 9.64849 35.2839C17.7755 35.847 25.9565 35.7803 34.0655 35.5176C34.9219 35.4935 35.7842 35.3619 36.6286 35.2121C40.7971 34.4814 40.8987 30.355 41.1689 26.8814C41.4384 23.372 41.3246 19.8445 40.8096 16.3589C40.3964 13.473 39.6057 11.0528 36.2693 10.8192C32.0889 10.5137 28.0044 10.2677 23.8123 10.346C23.8124 10.3646 23.7884 10.3646 23.7764 10.3646ZM19.3506 17.671C22.5009 19.4798 25.5911 21.2584 28.7233 23.0551C25.5672 24.8638 22.4829 26.6425 19.3506 28.4391V17.671Z" fill="#FF0000"/>
</g>
<defs>
<clipPath id="clip0_13_735">
<rect width="45.9264" height="46" fill="white" transform="matrix(1 0 0 -1 0 46)"/>
</clipPath>
</defs>
</svg>
